<?xml version="1.0" encoding="UTF-8"?><svg id="Layer_1" xmlns="http://www.w3.org/2000/svg" viewBox="0 0 138 141"><defs><style>.cls-1{fill:#231f20;}</style></defs><path class="cls-1" d="M0,96c0-7,1-14,4-2,2-6,6-11,1-14,4-3,9-5,15-5h7c-3,4-5,8-6,12-2,4-3,8-4,12,0,4-1,9-1,14,0,8,1,15,4,22,3,7,7,13,13,18h-1c-6,0-11-2-16-5-5-3-8-8-11-14-3-6-4-12-4-2ZM34,96c0-5,0-1,1-14,0-4,2-8,4-12,2-4,4-8,8-12,5-7,11-14,17-22,6-8,11-16,16-26,2-3,4-6,5-7,2-2,4-2,7-2s6,1,8,3c2,2,3,5,3,9s0,6-2,1c-1,3-2,7-4,1-1,3-3,7-4,9-1,3-2,5-2,7s0,3,2,4c1,0,3,1,5,1h23c4,0,7,1,1,4,3,3,4,6,4,1s0,4,0,5c0,2-1,3-2,4,0,0,0,0,0,0,0,1,1,2,2,4,0,2,0,3,0,5s0,4-1,6c0,2-2,4-4,5,0,0,0,0,0,0,1,2,2,5,2,8s0,5-2,7c-1,2-3,4-6,5,0,0,0,0,0,0,0,0,0,2,0,2,0,0,0,2,0,3s-1,6-3,9c-2,2-5,4-9,5-2,0-5,0-8,1s-7,0-11,0h-9c-8,0-15-1-22-4-6-2-12-5-17-9-5-4-8-9-11-14-3-6-4-12-4-18Z"/></svg>