<?xml version="1.0" encoding="UTF-8"?><svg id="Layer_1" xmlns="http://www.w3.org/2000/svg" viewBox="0 0 287.32 167.78"><path d="M24.13,167.24c-7.42,0-13.29-2.02-17.63-6.06-4.33-4.04-6.5-9.55-6.5-16.53,0-4.33.84-9.07,2.53-14.21L37.57,28.75C44.18,9.58,57.73,0,78.22,0c11.09,0,20.07,2.35,26.94,7.05,6.87,4.7,11.95,11.94,15.26,21.7l33.6,99.26c1.76,5.22,2.64,10.54,2.64,15.97,0,6.98-2.3,12.6-6.89,16.86-4.59,4.26-10.74,6.39-18.45,6.39-6.9,0-12.36-1.65-16.36-4.96-4-3.3-6.89-8.59-8.65-15.86l-27.43-104.44h-.88l-28.75,104.44c-1.76,7.27-4.64,12.56-8.65,15.86s-9.49,4.96-16.47,4.96Z" style="fill:#f7f9fd;"/><path d="M38.23,134.08c-4.92,0-9.11-1.72-12.56-5.18-3.45-3.45-5.18-7.64-5.18-12.56s1.73-9.11,5.18-12.56,7.64-5.18,12.56-5.18h79.1c4.92,0,9.11,1.73,12.56,5.18,3.45,3.45,5.18,7.64,5.18,12.56s-1.73,9.11-5.18,12.56c-3.45,3.45-7.64,5.18-12.56,5.18H38.23Z" style="fill:#f7f9fd;"/><path d="M280.54,61.03c-4.51-6.17-10.85-11-19-14.49-8.15-3.48-17.77-5.23-28.86-5.23-14.03,0-25.82,2.19-35.37,6.56-9.55,4.37-15.68,10.33-18.4,17.9-.44,1.25-.77,2.46-.99,3.63-.22,1.18-.33,2.43-.33,3.75,0,4.26,1.51,7.79,4.52,10.58,3.01,2.79,7.16,4.18,12.45,4.18,3.38,0,6.42-.62,9.14-1.87,2.72-1.25,5.22-3.01,7.49-5.29,3.82-4.04,7.09-6.83,9.81-8.37,2.71-1.54,5.98-2.32,9.8-2.32,4.78,0,8.67,1.27,11.68,3.81,3.01,2.53,4.52,6.22,4.52,11.07v6.5l-26.99,1.54c-16.09.88-28.41,4.52-36.97,10.91-8.55,6.39-12.83,15.27-12.83,26.66,0,7.34,1.85,13.82,5.56,19.44s8.72,9.99,15.04,13.11c6.32,3.12,13.44,4.68,21.38,4.68,7.26,0,14.15-1.69,20.65-5.06,6.36-3.31,11.19-7.96,14.49-13.93v1.81c.51,5.8,2.51,10.11,6,12.94s8.1,4.24,13.83,4.24c6.02,0,10.89-1.63,14.6-4.9,3.7-3.27,5.56-8.24,5.56-14.93v-65.33c0-8.22-2.26-15.42-6.78-21.59ZM247,121.95c0,3.6-.96,6.78-2.87,9.53-1.91,2.76-4.5,4.89-7.76,6.39-3.27,1.51-6.93,2.26-10.97,2.26-4.26,0-7.75-1.06-10.46-3.19-2.72-2.13-4.08-5.11-4.08-8.93,0-3.59,1.34-6.48,4.02-8.65,2.68-2.16,6.37-3.43,11.07-3.8l21.05-1.43v7.82Z" style="fill:#f7f9fd;"/></svg>