<?xml version="1.0" encoding="UTF-8"?>
<svg id="Layer_1" xmlns="http://www.w3.org/2000/svg" version="1.1" viewBox="0 0 287.3 167.8">
  <!-- Generator: Adobe Illustrator 29.8.3, SVG Export Plug-In . SVG Version: 2.1.1 Build 3)  -->
  <defs>
    <style>
      .st0 {
        fill: #f7f9fd;
      }
    </style>
  </defs>
  <path class="st0" d="M24.1,167.2c-7.4,0-13.3-2-17.6-6.1-4.3-4-6.5-9.5-6.5-16.5s.8-9.1,2.5-14.2L37.6,28.8C44.2,9.6,57.7,0,78.2,0s20.1,2.4,26.9,7.1c6.9,4.7,12,11.9,15.3,21.7l33.6,99.3c1.8,5.2,2.6,10.5,2.6,16s-2.3,12.6-6.9,16.9c-4.6,4.3-10.7,6.4-18.5,6.4s-12.4-1.7-16.4-5c-4-3.3-6.9-8.6-8.6-15.9l-27.4-104.4h-.9l-28.8,104.4c-1.8,7.3-4.6,12.6-8.6,15.9s-9.5,5-16.5,5Z"/>
  <path class="st0" d="M38.2,134.1c-4.9,0-9.1-1.7-12.6-5.2-3.5-3.5-5.2-7.6-5.2-12.6s1.7-9.1,5.2-12.6,7.6-5.2,12.6-5.2h79.1c4.9,0,9.1,1.7,12.6,5.2,3.5,3.5,5.2,7.6,5.2,12.6s-1.7,9.1-5.2,12.6c-3.5,3.5-7.6,5.2-12.6,5.2H38.2Z"/>
  <path class="st0" d="M280.5,61c-4.5-6.2-10.9-11-19-14.5-8.2-3.5-17.8-5.2-28.9-5.2s-25.8,2.2-35.4,6.6c-9.5,4.4-15.7,10.3-18.4,17.9-.4,1.2-.8,2.5-1,3.6-.2,1.2-.3,2.4-.3,3.8,0,4.3,1.5,7.8,4.5,10.6,3,2.8,7.2,4.2,12.4,4.2s6.4-.6,9.1-1.9c2.7-1.2,5.2-3,7.5-5.3,3.8-4,7.1-6.8,9.8-8.4,2.7-1.5,6-2.3,9.8-2.3s8.7,1.3,11.7,3.8c3,2.5,4.5,6.2,4.5,11.1v6.5l-27,1.5c-16.1.9-28.4,4.5-37,10.9-8.5,6.4-12.8,15.3-12.8,26.7s1.8,13.8,5.6,19.4,8.7,10,15,13.1c6.3,3.1,13.4,4.7,21.4,4.7s14.2-1.7,20.7-5.1c6.4-3.3,11.2-8,14.5-13.9v1.8c.5,5.8,2.5,10.1,6,12.9s8.1,4.2,13.8,4.2,10.9-1.6,14.6-4.9c3.7-3.3,5.6-8.2,5.6-14.9v-65.3c0-8.2-2.3-15.4-6.8-21.6ZM247,122c0,3.6-1,6.8-2.9,9.5-1.9,2.8-4.5,4.9-7.8,6.4-3.3,1.5-6.9,2.3-11,2.3s-7.8-1.1-10.5-3.2c-2.7-2.1-4.1-5.1-4.1-8.9s1.3-6.5,4-8.7c2.7-2.2,6.4-3.4,11.1-3.8l21-1.4v7.8Z"/>
</svg>